<svg width="97" height="39" viewBox="0 0 97 39" fill="none" xmlns="http://www.w3.org/2000/svg">
<rect width="97" height="39" fill="#348E22"/>
<path d="M30.5568 16.3643V14.8182H38.6804V16.3643H35.5334V25H33.7038V16.3643H30.5568ZM40.2464 25V14.8182H46.8686V16.3643H42.0909V19.1286H46.5256V20.6747H42.0909V23.4538H46.9084V25H40.2464ZM54.2837 17.6172C54.2373 17.183 54.0418 16.8449 53.6971 16.603C53.3557 16.361 52.9116 16.2401 52.3647 16.2401C51.9802 16.2401 51.6505 16.2981 51.3754 16.4141C51.1003 16.5301 50.8898 16.6875 50.744 16.8864C50.5981 17.0852 50.5236 17.3123 50.5202 17.5675C50.5202 17.7796 50.5683 17.9635 50.6644 18.1193C50.7638 18.2751 50.8981 18.4077 51.0671 18.517C51.2362 18.6231 51.4234 18.7126 51.6289 18.7855C51.8344 18.8584 52.0415 18.9197 52.2504 18.9695L53.2049 19.2081C53.5894 19.2976 53.9589 19.4186 54.3136 19.571C54.6715 19.7235 54.9914 19.9157 55.2731 20.1477C55.5581 20.3797 55.7835 20.6598 55.9492 20.9879C56.1149 21.3161 56.1978 21.7005 56.1978 22.1413C56.1978 22.7379 56.0453 23.2633 55.7404 23.7173C55.4355 24.1681 54.9947 24.5211 54.418 24.7763C53.8446 25.0282 53.1502 25.1541 52.3349 25.1541C51.5427 25.1541 50.855 25.0315 50.2717 24.7862C49.6916 24.541 49.2376 24.183 48.9094 23.7124C48.5846 23.2417 48.409 22.6683 48.3825 21.9922H50.1971C50.2236 22.3468 50.333 22.6418 50.5252 22.8771C50.7174 23.1125 50.9677 23.2881 51.2759 23.4041C51.5875 23.5201 51.9355 23.5781 52.32 23.5781C52.721 23.5781 53.0723 23.5185 53.3739 23.3991C53.6789 23.2765 53.9175 23.1075 54.0898 22.892C54.2622 22.6733 54.35 22.4181 54.3533 22.1264C54.35 21.8613 54.2721 21.6425 54.1197 21.4702C53.9672 21.2945 53.7534 21.1487 53.4783 21.0327C53.2066 20.9134 52.8884 20.8073 52.5238 20.7145L51.3654 20.4162C50.5269 20.2008 49.864 19.8743 49.3768 19.4368C48.8929 18.996 48.6509 18.411 48.6509 17.6818C48.6509 17.0819 48.8133 16.5566 49.1381 16.1058C49.4663 15.6551 49.9121 15.3054 50.4755 15.0568C51.0389 14.8049 51.677 14.679 52.3896 14.679C53.1121 14.679 53.7451 14.8049 54.2887 15.0568C54.8356 15.3054 55.2648 15.6518 55.5763 16.0959C55.8879 16.5367 56.0487 17.0438 56.0586 17.6172H54.2837ZM57.3947 16.3643V14.8182H65.5183V16.3643H62.3713V25H60.5417V16.3643H57.3947Z" fill="white"/>
</svg>
